PathFileType	4	(X/Y/Z)	Formatted/subject18/trials/walk2/markers.trc
DataRate	CameraRate	NumFrames	NumMarkers	Units	OrigDataRate	OrigDataStartFrame	OrigNumFrames
200.00000000000426	200.00000000000426	4	64	m	200.00000000000426	53	215
Frame#	Time	CLAV			C7			RACR			RASH			RPSH			RLEL			RMEL			RUA1			RUA2			RUA3			RFAsuperior			RFAradius			RFAulna			RASI			RPSI			RCAL			RTOE			RMT5			RTH1			RTH2			RTH3			RTB1			RTB2			RTB3			RLFC			RMFC			RLMAL			RMMAL			RHJC			RKJC			REJC			RAJC			RSJC			LACR			LASH			LPSH			LLEL			LMEL			LUA1			LUA2			LUA3			LFAsuperior			LFAradius			LFAulna			LASI			LPSI			LCAL			LTOE			LMT5			LTH1			LTH2			LTH3			LTB1			LTB2			LTB3			LLFC			LMFC			LLMAL			LMMAL			LHJC			LKJC			LEJC			LAJC			LSJC			
		X1	Y1	Z1	X2	Y2	Z2	X3	Y3	Z3	X4	Y4	Z4	X5	Y5	Z5	X6	Y6	Z6	X7	Y7	Z7	X8	Y8	Z8	X9	Y9	Z9	X10	Y10	Z10	X11	Y11	Z11	X12	Y12	Z12	X13	Y13	Z13	X14	Y14	Z14	X15	Y15	Z15	X16	Y16	Z16	X17	Y17	Z17	X18	Y18	Z18	X19	Y19	Z19	X20	Y20	Z20	X21	Y21	Z21	X22	Y22	Z22	X23	Y23	Z23	X24	Y24	Z24	X25	Y25	Z25	X26	Y26	Z26	X27	Y27	Z27	X28	Y28	Z28	X29	Y29	Z29	X30	Y30	Z30	X31	Y31	Z31	X32	Y32	Z32	X33	Y33	Z33	X34	Y34	Z34	X35	Y35	Z35	X36	Y36	Z36	X37	Y37	Z37	X38	Y38	Z38	X39	Y39	Z39	X40	Y40	Z40	X41	Y41	Z41	X42	Y42	Z42	X43	Y43	Z43	X44	Y44	Z44	X45	Y45	Z45	X46	Y46	Z46	X47	Y47	Z47	X48	Y48	Z48	X49	Y49	Z49	X50	Y50	Z50	X51	Y51	Z51	X52	Y52	Z52	X53	Y53	Z53	X54	Y54	Z54	X55	Y55	Z55	X56	Y56	Z56	X57	Y57	Z57	X58	Y58	Z58	X59	Y59	Z59	X60	Y60	Z60	X61	Y61	Z61	X62	Y62	Z62	X63	Y63	Z63	X64	Y64	Z64	

54	2.705	1.159933855315309	1.430653621879429	-0.4498923941657856	1.055778624217739	1.527659485668672	-0.4744356561487053	1.069995491060678	1.490481527741354	-0.3130265217690136	1.125944746337446	1.43857476226931	-0.3291965861010061	1.011877179795513	1.462817682061756	-0.3250310239350797	0.9795883233847684	1.177843255953202	-0.2121990267589913	0.9600087635186668	1.160366573066506	-0.2833572576321827	1.073919844441881	1.384063214891695	-0.2558218245345346	1.013236669463226	1.346898013305698	-0.2589842832776964	1.050520385972714	1.282994801096481	-0.2582571535033315	1.035320425307932	1.106813116101708	-0.2294004213183778	1.076373921026125	0.9473398355624837	-0.2159162439185163	1.019558683957969	0.9357936049758545	-0.1903806098074801	1.123575886294244	1.04442509909856	-0.3560818540706746	0.9585045560023367	1.086436719475937	-0.4235124783404318	0.9652145478102437	0.04619128208626101	-0.4023515240779403	1.182210243417634	0.02248752799213077	-0.4476123262504642	1.170785576905915	0.02707579549304956	-0.3743461476943494	1.122693677151652	0.8235585771117033	-0.3105065379011609	1.169584757534383	0.7107860298504213	-0.351263199564196	1.115196594419021	0.5747851915121076	-0.3382918496664463	1.132447850976749	0.3709377514323221	-0.4060046342415734	1.068817722171655	0.2923010583880331	-0.3403867677197502	1.089401557449664	0.1766342389417987	-0.4066849790989301	1.127406210228496	0.4945058174117105	-0.3467328297503015	1.123676353192604	0.5085570154332276	-0.4585855125238409	1.033740639300798	0.08206334487138789	-0.3616141479875349	1.04588884684747	0.0882452055007929	-0.4433381597973621	1.068635160799973	0.9414504337491436	-0.3741767466900965	1.127365165982982	0.5125481639228293	-0.4088834320451837	0.9839728797352896	1.168097226105782	-0.2524372255811155	1.025721578132664	0.07068462010502313	-0.4067923406755659	1.081738641805746	1.445294580716188	-0.3100044550136973	1.089860461609152	1.495659803499734	-0.6373552673868034	1.133400322192375	1.43469736615378	-0.6000038351603683	1.030090980464506	1.472014468482464	-0.6251791539037834	1.069761350213188	1.157684872834189	-0.7373255652122235	1.038639258348431	1.149484874901393	-0.6719300767220315	1.082290469264581	1.366905472156845	-0.6998023079573297	1.031501858118309	1.301112843794016	-0.6793073623081296	1.102221665366786	1.284326795655696	-0.6960653903409109	1.128139678591006	1.099383397570246	-0.7106872494361465	1.203336963547824	0.9553832452912883	-0.7032854575498995	1.156970432845013	0.9378962612885359	-0.7378523769432714	1.116780225178352	1.042979426883091	-0.610484774622242	0.9509074664879229	1.083670856564592	-0.5233984520018686	0.766472122579009	0.2824050496724091	-0.5842807741578411	0.8652040347643787	0.08592882204681021	-0.5121670218584709	0.868987537320876	0.1037727442064443	-0.6062065154994205	1.081028950971904	0.8134012563958386	-0.6613374574469578	1.164430558748383	0.7321891998764034	-0.6402821863420225	1.146806403668199	0.6114403731363826	-0.63590231308626	1.088871764991881	0.4158169737088412	-0.5690103551076227	0.9774160265429119	0.3768391727911559	-0.6295860105042653	0.9226470514557632	0.2776670755039035	-0.5794543006202458	1.168008585312408	0.5287678255288433	-0.6304138303017303	1.181947008966211	0.5259541870863492	-0.5165138392718113	0.8341692174016384	0.2553390907387227	-0.620276505891043	0.8409839888498816	0.2535973007515171	-0.5428636840855328	1.051288284418768	0.9463641460398349	-0.590426691660799	1.181706241485413	0.5224107350458963	-0.5743245011582573	1.066471043514402	1.155355917643602	-0.6964575561647549	0.8205029918070104	0.2483472771258391	-0.5751096279599109	1.100306919558829	1.446075408251154	-0.6328351166173787	
55	2.71	1.165961350678344	1.431201198201915	-0.4501261199627479	1.061875210240079	1.528356272035852	-0.4743704694123743	1.076544814301818	1.491205169849638	-0.3129956670338804	1.132364746107978	1.439209487994643	-0.3293262129489861	1.018347442367576	1.463625183872252	-0.3248085755575616	0.9871946185776675	1.17844653736374	-0.211320236044753	0.9673928185466244	1.16078660204401	-0.2823716458147799	1.080786945347864	1.384847205166896	-0.2556744524785969	1.020195498454343	1.347508550398292	-0.2585384537252065	1.057658836717025	1.283710175595289	-0.2578381510503032	1.043510507546449	1.107874638672239	-0.2286666781227219	1.08617085804652	0.948811849494131	-0.2153226400956259	1.029552033205572	0.9367068925843693	-0.1896101158094745	1.128961202352912	1.044965312103475	-0.3558151780823821	0.9639237484845018	1.086989631810105	-0.423320768919803	0.9654510117817546	0.04672456524868001	-0.4024508704377326	1.182460226856076	0.0224165464943931	-0.4473247033546868	1.170918822308985	0.02704729565059982	-0.3740794969100794	1.127200395990127	0.8235594285544842	-0.3105170061990565	1.173193248712002	0.71039458639251	-0.3512097856830427	1.117678775775875	0.5748489407258577	-0.3382453161840048	1.133898406271094	0.3708959990659565	-0.4058884831125282	1.069866962726805	0.2925142095227841	-0.3403560751206434	1.090115001092764	0.1767573691990509	-0.4066005548018576	1.129234176669254	0.4944697035039287	-0.3466568382077941	1.125704353074517	0.5085222281738768	-0.4585158456179114	1.034024374248277	0.0824072926079234	-0.3615997074880082	1.046324203732635	0.08852737354812634	-0.4433056880382241	1.074161207484679	0.9418753933448373	-0.3742577741361122	1.129358539017625	0.512524155625411	-0.4088013792938304	0.9914529532509112	1.168639651161678	-0.2515572046862515	1.02603301661642	0.07105052443923698	-0.4067883325373091	1.08822949838744	1.446001516269419	-0.3099969140982675	1.095395275991594	1.496256721845162	-0.6373869565982726	1.138960958453905	1.43524002363805	-0.6001544228726826	1.035628993253753	1.472704945218302	-0.6250153863927841	1.073879957232414	1.158317936529227	-0.7371088886996134	1.042904823426242	1.150274741921258	-0.6716242142391329	1.087289125585227	1.367513858758752	-0.6997525884709104	1.036311744819569	1.301923589984477	-0.6790784728039309	1.106922945935485	1.284863905935095	-0.6960171713966234	1.131672494788945	1.099404410239689	-0.7107689727735075	1.20530922403211	0.9545716950296372	-0.7039441097257961	1.158654532619367	0.9376803332998548	-0.7384193669890918	1.122455777798644	1.044194632537388	-0.6102286259732098	0.9564428621980876	1.084483787223796	-0.523222373432977	0.7819326590528289	0.2783039783099017	-0.5827852335888312	0.885934373950953	0.0845628506906875	-0.5106789887584053	0.8890744034187998	0.1024113219919544	-0.604741303747083	1.088612314624417	0.8147700390830708	-0.6611805791476434	1.173217214606068	0.7348491695907524	-0.6399858566015312	1.157388198594883	0.6138617014693111	-0.6353438634090093	1.102513977616431	0.4174445059582339	-0.5680242823089161	0.9916775426655534	0.3765620735651042	-0.6284806470136992	0.9385184099360802	0.276630572226001	-0.578124560033995	1.179816669049402	0.5315246516954359	-0.6296887749679571	1.193835731272715	0.5291595992771654	-0.5157884826360613	0.8503965911023565	0.2528045998013705	-0.6188699468797669	0.8572624155507245	0.251333039133068	-0.5414560276792336	1.056927219122444	0.9474270617858566	-0.5905396347559576	1.193628873238402	0.5254990907380577	-0.5735913851383787	1.070691721319292	1.156026795906885	-0.6962306531656923	0.8368580521338849	0.2456888771899055	-0.5736839701174768	1.10578138691087	1.446658022781213	-0.6328847071631132	
56	2.715	1.1719794804755	1.431721247981134	-0.4503716317783085	1.067965836781661	1.52902697375824	-0.4743211440858511	1.083080760969673	1.491900809514251	-0.3129817021784376	1.138770781622883	1.439815766463229	-0.3294702539133125	1.024805210075572	1.46440566387625	-0.3246054566789603	0.9948174840955217	1.179009566433503	-0.2104800387493512	0.9748011266570957	1.161166538784991	-0.2814255053381784	1.087644359166442	1.385601150584227	-0.2555482585718634	1.02715111679498	1.348082378504141	-0.2581193378608131	1.064801611232639	1.284393971925966	-0.2574471018473639	1.051717460268742	1.108906012910072	-0.22797897443191	1.09598813744429	0.9502709625428967	-0.214789293078711	1.039573203392542	0.9376052550631296	-0.1888993281637682	1.13434549794532	1.04548655315184	-0.3555724696705498	0.9693369061840631	1.087520141420252	-0.4231428146654548	0.9656864046301065	0.04726059992475268	-0.4025504415576306	1.182702898222978	0.02234710753247947	-0.4470554917100122	1.171051283729956	0.02702236780134088	-0.3738305646366113	1.131699764357524	0.8235446760005849	-0.3105483272687689	1.176778479357582	0.7099911376252485	-0.3511811918190013	1.120132914002854	0.5749142577730926	-0.3382169066861177	1.135319365344951	0.3708617832691794	-0.4057893984983632	1.070899074455716	0.2927320066646935	-0.3403371921104204	1.090816237728228	0.1768869714022389	-0.4065277853987055	1.131026466247133	0.4944396431188999	-0.3465996082019107	1.127685859315806	0.5084907208323322	-0.4584646081053996	1.034308153113014	0.08275525014046875	-0.361591974991639	1.046753061701522	0.08881259603650549	-0.4432806600382881	1.079685384926773	0.9422793803588544	-0.3743549323514898	1.131309986916968	0.5125052157156639	-0.4087377910554935	0.9989535771768321	1.169143744890542	-0.2507153512985495	1.026342393653538	0.07141883603739901	-0.4067902294424616	1.094706186858587	1.446680365629982	-0.3100058684866627	1.100930232675208	1.496829007437843	-0.6374315073159807	1.144518932643907	1.435757189530882	-0.6003164698148613	1.041167075199151	1.473371510385164	-0.6248672196542752	1.077949714430433	1.158940780793178	-0.7369111386449436	1.047135904488683	1.151052795133549	-0.6713315436315994	1.092265631878575	1.368105108752161	-0.6997147509542301	1.041099268618501	1.302721451896298	-0.6788538676289	1.111595043226385	1.285382991779998	-0.6959891416605865	1.135154958897076	1.09942133723292	-0.7108823686658892	1.207221653075071	0.9537747030912824	-0.7046444525206847	1.160276926670107	0.9374806413783615	-0.7390133034024597	1.128111335557879	1.045380696013142	-0.6099938543396003	0.9619648016314556	1.08527032770311	-0.5230585987725277	0.7975645296704045	0.2739340689509535	-0.5812851765866697	0.9068609509060782	0.08312511424152155	-0.5091913010893104	0.9093468591594113	0.1009578948652732	-0.6032761511410667	1.096121738097711	0.8161220941127361	-0.6610363896823388	1.181883881429347	0.737480200670813	-0.6397089868363937	1.167810108003652	0.6162865349897543	-0.6348000570682579	1.116081147168339	0.4190426794832099	-0.5670506047658821	1.005930286509574	0.376169376301064	-0.6273807663328927	0.9544838263248845	0.275458549603209	-0.5767989023039322	1.19143067937289	0.5342951655626833	-0.6289785430611253	1.205531215066298	0.5323785197627537	-0.5150798796190544	0.866763021891408	0.2500635776162867	-0.6174618379220311	0.873679272107168	0.2488680874899898	-0.5400476518289519	1.062549629065519	0.9484582934830234	-0.5906658148286118	1.205356118921352	0.5286089608905062	-0.5728746520813206	1.074872404554537	1.156684915523319	-0.6960224415543323	0.8533620952775043	0.2428135659065997	-0.5722561907333831	1.111255106333491	1.447215931839227	-0.6329468431784385	
57	2.72	1.177989404869808	1.43221070190526	-0.4506286239305209	1.074051354997762	1.529668202159078	-0.4742874260202384	1.089604235805922	1.492565128413862	-0.312984300393669	1.14516393377822	1.440390446098157	-0.3296283664467065	1.031251451369292	1.465155628925693	-0.3244213638565678	1.002456114244065	1.179529946055898	-0.2096780900972059	0.9822324707918195	1.161504223173299	-0.28051850928252	1.094492817996581	1.386321820920868	-0.2554429397911621	1.034103952389206	1.348616761146497	-0.2577264585201273	1.071948589476685	1.285043219524818	-0.2570837964637748	1.05993978347442	1.109904501076829	-0.2273379722537219	1.105823133864664	0.9517143884156747	-0.2143169826602199	1.049620128108469	0.9384865450004533	-0.1882478147434148	1.139731425454252	1.045986341592278	-0.3553534249174047	0.9747463627865476	1.088025771545859	-0.4229775688764504	0.9659192962750718	0.04779563231755224	-0.402649619735767	1.182937039462772	0.02227975583821678	-0.4468059247532765	1.171182243312605	0.02700095511508719	-0.3736004388342787	1.136193723529377	0.8235109815777669	-0.3105994425534443	1.180340994872923	0.7095724449525074	-0.3511772025924941	1.122558918554476	0.5749784858365773	-0.3382059243291292	1.136709162452884	0.3708327322404608	-0.4057074420769846	1.07191313041434	0.2929517494901899	-0.340329663363706	1.091503527138468	0.1770205162249026	-0.4064668370062143	1.132782313990435	0.4944130977641515	-0.3465607552335802	1.129618675976922	0.508460471809154	-0.4584313649572488	1.034590635755672	0.08310443061801914	-0.3615907488271603	1.047173144390262	0.08909844518763249	-0.4432630251486326	1.085209647320416	0.942659481275567	-0.3744662377734672	1.133217983305693	0.5124891221032895	-0.4086922315945297	1.006473709073344	1.169607126595071	-0.2499113929986839	1.026647823681299	0.07178696062471368	-0.4067977883584727	1.101169745844693	1.447327847824247	-0.3100309834872578	1.106466347273325	1.497373348149579	-0.6374887180039143	1.15007543871033	1.436245690413372	-0.6004897407227001	1.046706284546	1.474010675890321	-0.6247344664906722	1.081974798599323	1.159549984548885	-0.7367307861554668	1.051337367414692	1.15181519985881	-0.6710503826913269	1.097221715829239	1.368675788320915	-0.6996880736219766	1.04586730605893	1.303502382705614	-0.6786322534321383	1.116240720050402	1.285880943701139	-0.6959804966719464	1.138592552180507	1.099431942868457	-0.7110261013386238	1.209082555806229	0.9529915349759081	-0.7053844376233086	1.161845844267815	0.9372953281048025	-0.7396312457690504	1.133747521159402	1.046531783425009	-0.6097802559433816	0.9674748067503385	1.086026710116101	-0.5229060519392886	0.8133729831173359	0.2693122034994961	-0.5797904568735925	0.927966148572072	0.08162919687385334	-0.507715584473546	0.9297903054964008	0.09942620895017358	-0.6018223622663864	1.103557363358709	0.8174514300933928	-0.6609043855238887	1.190430556398742	0.7400733491393686	-0.6394513749188084	1.1780699214998	0.6187041930732189	-0.634272962825884	1.129568626262834	0.4206061084414652	-0.5660948944447021	1.020173240159969	0.3756629573418036	-0.6262930945253912	0.9705402092962747	0.2741585307152814	-0.5754861317068076	1.202847405349757	0.5370669308071736	-0.6282863292609312	1.217029156944594	0.53559656367688	-0.5143911137597607	0.8832685998570793	0.2471288222934923	-0.6160617341580354	0.8902337234664872	0.2462137392037314	-0.5386481074622947	1.068156443707433	0.9494534271803673	-0.5908028760766586	1.216883748806112	0.5317266794257219	-0.5721775097902398	1.079017618116344	1.157326804929566	-0.6958314356725175	0.8700151845155006	0.239734243768177	-0.5708360198810568	1.116729239040642	1.447745857176305	-0.6330213148309257	
